<svg width="1059" height="135" viewBox="0 0 1059 135" fill="none" xmlns="http://www.w3.org/2000/svg">
  <path d="M56.9599 9.53589L91.1359 44.4774L79.7439 56.1246L45.5679 21.1831L56.9599 9.53589Z" fill="#F09409"/>
  <path d="M159.488 21.1831L205.056 67.7718L159.488 114.361L148.096 102.713L182.272 67.7718L148.096 32.8303L159.488 21.1831Z" fill="#C6C6C6"/>
  <path d="M125.311 79.4189L113.919 91.0661L148.095 126.008L159.487 114.36L125.311 79.4189Z" fill="#F09409"/>
  <path d="M45.5675 21.1831L56.9595 32.8303L22.7835 67.7718L56.9595 102.713L45.5675 114.361L-0.000488281 67.7718L45.5675 21.1831Z" fill="#C6C6C6"/>
  <path d="M148.096 9.53589L159.488 21.1831L56.9599 126.008L45.5679 114.36L148.096 9.53589Z" fill="#F09409"/>
  <path d="M253.129 27.5999H262.053V94.2676H295.019V102.772H253.129V27.5999ZM307.811 39.7785C306.061 39.7785 304.556 39.1486 303.296 37.8888C302.036 36.6289 301.407 35.1241 301.407 33.3742C301.407 31.6244 302.036 30.1196 303.296 28.8597C304.556 27.5999 306.061 26.9699 307.811 26.9699C309.561 26.9699 311.066 27.5999 312.325 28.8597C313.585 30.1196 314.215 31.6244 314.215 33.3742C314.215 35.1241 313.585 36.6289 312.325 37.8888C311.135 39.1486 309.631 39.7785 307.811 39.7785ZM303.401 50.6974H312.22V102.772H303.401V50.6974ZM324.046 50.6974H332.55V58.4665H332.97C334.439 55.8068 336.714 53.5671 339.794 51.7472C342.943 49.9274 346.128 49.0175 349.348 49.0175C353.267 49.0175 356.627 49.9624 359.427 51.8522C362.296 53.672 364.361 56.1918 365.621 59.4114C367.581 56.2618 370.101 53.742 373.18 51.8522C376.26 49.9624 379.795 49.0175 383.784 49.0175C389.873 49.0175 394.458 50.8723 397.538 54.5819C400.617 58.2915 402.157 63.401 402.157 69.9103V102.772H393.233V71.2751C393.233 66.1657 392.253 62.5261 390.293 60.3563C388.404 58.1866 385.464 57.1017 381.474 57.1017C378.815 57.1017 376.4 57.9066 374.23 59.5164C372.13 61.0562 370.486 63.121 369.296 65.7107C368.106 68.3005 367.511 71.0302 367.511 73.8999V102.772H358.692V71.2751C358.692 66.1657 357.712 62.5261 355.752 60.3563C353.792 58.1866 350.853 57.1017 346.933 57.1017C344.203 57.1017 341.789 57.9066 339.689 59.5164C337.589 61.1262 335.944 63.226 334.754 65.8157C333.565 68.4054 332.97 71.1701 332.97 74.1098V102.772H324.046V50.6974ZM418.037 39.7785C416.288 39.7785 414.783 39.1486 413.523 37.8888C412.263 36.6289 411.633 35.1241 411.633 33.3742C411.633 31.6244 412.263 30.1196 413.523 28.8597C414.783 27.5999 416.288 26.9699 418.037 26.9699C419.787 26.9699 421.292 27.5999 422.552 28.8597C423.812 30.1196 424.442 31.6244 424.442 33.3742C424.442 35.1241 423.812 36.6289 422.552 37.8888C421.362 39.1486 419.857 39.7785 418.037 39.7785ZM413.628 50.6974H422.447V102.772H413.628V50.6974ZM453.812 103.612C451.713 103.612 449.753 103.262 447.933 102.562C446.183 101.862 444.678 100.917 443.418 99.7271C442.019 98.3972 440.969 96.8574 440.269 95.1076C439.639 93.2878 439.324 91.153 439.324 88.7033V58.7815H430.085V50.6974H439.324V35.159H448.143V50.6974H460.952V58.7815H448.143V86.4985C448.143 89.4382 448.738 91.6079 449.928 93.0078C451.118 94.5476 452.937 95.3175 455.387 95.3175C457.557 95.3175 459.447 94.8276 461.057 93.8477V102.457C459.937 102.877 458.852 103.157 457.802 103.297C456.822 103.507 455.492 103.612 453.812 103.612ZM490.237 104.452C485.197 104.452 480.683 103.262 476.693 100.882C472.774 98.5022 469.694 95.2125 467.454 91.013C465.215 86.8135 464.095 82.054 464.095 76.7345C464.095 71.6951 465.145 67.0756 467.244 62.876C469.344 58.6065 472.319 55.2469 476.168 52.7971C480.088 50.2774 484.567 49.0175 489.607 49.0175C494.646 49.0175 499.056 50.1724 502.835 52.4822C506.685 54.7219 509.625 57.9066 511.654 62.0361C513.684 66.1657 514.699 70.9252 514.699 76.3146C514.699 77.2945 514.629 77.9944 514.489 78.4144H473.124C473.264 82.3339 474.209 85.6586 475.958 88.3883C477.708 91.048 479.878 93.0428 482.468 94.3726C485.127 95.7025 487.857 96.3674 490.657 96.3674C497.236 96.3674 502.311 93.1478 505.88 86.7085L513.754 90.4881C511.515 94.6876 508.4 98.0822 504.41 100.672C500.491 103.192 495.766 104.452 490.237 104.452ZM505.25 70.9602C505.11 68.8604 504.515 66.7606 503.465 64.6609C502.415 62.5611 500.701 60.7763 498.321 59.3064C496.011 57.8366 493.037 57.1017 489.397 57.1017C485.477 57.1017 482.083 58.3615 479.213 60.8813C476.343 63.401 474.524 66.7606 473.754 70.9602H505.25ZM545.113 104.452C540.634 104.452 536.504 103.262 532.724 100.882C528.945 98.5022 525.935 95.2125 523.695 91.013C521.456 86.7435 520.336 81.984 520.336 76.7345C520.336 71.4851 521.456 66.7606 523.695 62.5611C525.935 58.2915 528.945 54.9669 532.724 52.5872C536.504 50.2074 540.634 49.0175 545.113 49.0175C549.173 49.0175 552.812 49.9274 556.032 51.7472C559.252 53.4971 561.666 55.7018 563.276 58.3615H563.696L563.276 51.2223V27.5999H572.095V102.772H563.696V95.0026H563.276C561.666 97.7323 559.252 100.007 556.032 101.827C552.812 103.577 549.173 104.452 545.113 104.452ZM546.478 96.3674C549.558 96.3674 552.392 95.5975 554.982 94.0577C557.642 92.4478 559.741 90.1381 561.281 87.1284C562.891 84.1187 563.696 80.6541 563.696 76.7345C563.696 72.745 562.891 69.2804 561.281 66.3407C559.741 63.331 557.642 61.0562 554.982 59.5164C552.392 57.9066 549.558 57.1017 546.478 57.1017C543.398 57.1017 540.529 57.9066 537.869 59.5164C535.279 61.1262 533.179 63.436 531.57 66.4457C530.03 69.3853 529.26 72.815 529.26 76.7345C529.26 80.6541 530.03 84.1187 531.57 87.1284C533.179 90.0681 535.279 92.3429 537.869 93.9527C540.529 95.5625 543.398 96.3674 546.478 96.3674ZM622.518 104.452C618.738 104.452 615.308 103.717 612.229 102.247C609.219 100.707 606.839 98.6072 605.089 95.9475C603.41 93.2178 602.57 90.1731 602.57 86.8135C602.57 81.2841 604.635 76.9795 608.764 73.8999C612.964 70.8202 618.318 69.2804 624.827 69.2804C628.047 69.2804 630.952 69.6303 633.541 70.3302C636.131 71.0302 638.196 71.8001 639.736 72.64V69.9103C639.736 67.3906 639.071 65.1508 637.741 63.191C636.481 61.1612 634.766 59.6214 632.596 58.5715C630.427 57.4516 628.082 56.8917 625.562 56.8917C619.613 56.8917 615.063 59.3064 611.914 64.1359L604.46 59.2014C606.629 55.9818 609.499 53.4971 613.069 51.7472C616.638 49.9274 620.663 49.0175 625.142 49.0175C632.282 49.0175 637.916 50.9423 642.045 54.7919C646.175 58.6415 648.24 63.8209 648.24 70.3302V102.772H639.736V95.1076H639.316C637.636 97.7673 635.361 100.007 632.491 101.827C629.622 103.577 626.297 104.452 622.518 104.452ZM623.252 96.5774C626.052 96.5774 628.712 95.8425 631.232 94.3726C633.751 92.9028 635.781 90.908 637.321 88.3883C638.931 85.8686 639.736 83.1389 639.736 80.1992C635.816 77.6794 631.302 76.4196 626.192 76.4196C621.783 76.4196 618.248 77.4345 615.588 79.4643C612.999 81.424 611.704 83.9438 611.704 87.0234C611.704 89.8231 612.859 92.1329 615.168 93.9527C617.478 95.7025 620.173 96.5774 623.252 96.5774ZM651.567 50.6974H661.226L677.185 92.2729H677.395L693.563 50.6974H703.012L681.699 102.772H672.67L651.567 50.6974ZM724.029 104.452C720.25 104.452 716.82 103.717 713.74 102.247C710.731 100.707 708.351 98.6072 706.601 95.9475C704.921 93.2178 704.081 90.1731 704.081 86.8135C704.081 81.2841 706.146 76.9795 710.276 73.8999C714.475 70.8202 719.83 69.2804 726.339 69.2804C729.559 69.2804 732.463 69.6303 735.053 70.3302C737.643 71.0302 739.708 71.8001 741.247 72.64V69.9103C741.247 67.3906 740.582 65.1508 739.253 63.191C737.993 61.1612 736.278 59.6214 734.108 58.5715C731.938 57.4516 729.594 56.8917 727.074 56.8917C721.125 56.8917 716.575 59.3064 713.425 64.1359L705.971 59.2014C708.141 55.9818 711.011 53.4971 714.58 51.7472C718.15 49.9274 722.174 49.0175 726.654 49.0175C733.793 49.0175 739.428 50.9423 743.557 54.7919C747.687 58.6415 749.751 63.8209 749.751 70.3302V102.772H741.247V95.1076H740.827C739.148 97.7673 736.873 100.007 734.003 101.827C731.133 103.577 727.809 104.452 724.029 104.452ZM724.764 96.5774C727.564 96.5774 730.224 95.8425 732.743 94.3726C735.263 92.9028 737.293 90.908 738.833 88.3883C740.442 85.8686 741.247 83.1389 741.247 80.1992C737.328 77.6794 732.813 76.4196 727.704 76.4196C723.294 76.4196 719.76 77.4345 717.1 79.4643C714.51 81.424 713.215 83.9438 713.215 87.0234C713.215 89.8231 714.37 92.1329 716.68 93.9527C718.99 95.7025 721.685 96.5774 724.764 96.5774ZM765.233 39.7785C763.483 39.7785 761.979 39.1486 760.719 37.8888C759.459 36.6289 758.829 35.1241 758.829 33.3742C758.829 31.6244 759.459 30.1196 760.719 28.8597C761.979 27.5999 763.483 26.9699 765.233 26.9699C766.983 26.9699 768.488 27.5999 769.748 28.8597C771.008 30.1196 771.637 31.6244 771.637 33.3742C771.637 35.1241 771.008 36.6289 769.748 37.8888C768.558 39.1486 767.053 39.7785 765.233 39.7785ZM760.824 50.6974H769.643V102.772H760.824V50.6974ZM781.468 27.5999H790.392V102.772H781.468V27.5999ZM817.805 104.452C814.025 104.452 810.595 103.717 807.516 102.247C804.506 100.707 802.126 98.6072 800.377 95.9475C798.697 93.2178 797.857 90.1731 797.857 86.8135C797.857 81.2841 799.922 76.9795 804.051 73.8999C808.251 70.8202 813.605 69.2804 820.114 69.2804C823.334 69.2804 826.239 69.6303 828.828 70.3302C831.418 71.0302 833.483 71.8001 835.023 72.64V69.9103C835.023 67.3906 834.358 65.1508 833.028 63.191C831.768 61.1612 830.053 59.6214 827.884 58.5715C825.714 57.4516 823.369 56.8917 820.849 56.8917C814.9 56.8917 810.35 59.3064 807.201 64.1359L799.747 59.2014C801.916 55.9818 804.786 53.4971 808.356 51.7472C811.925 49.9274 815.95 49.0175 820.429 49.0175C827.569 49.0175 833.203 50.9423 837.333 54.7919C841.462 58.6415 843.527 63.8209 843.527 70.3302V102.772H835.023V95.1076H834.603C832.923 97.7673 830.648 100.007 827.779 101.827C824.909 103.577 821.584 104.452 817.805 104.452ZM818.54 96.5774C821.339 96.5774 823.999 95.8425 826.519 94.3726C829.038 92.9028 831.068 90.908 832.608 88.3883C834.218 85.8686 835.023 83.1389 835.023 80.1992C831.103 77.6794 826.589 76.4196 821.479 76.4196C817.07 76.4196 813.535 77.4345 810.875 79.4643C808.286 81.424 806.991 83.9438 806.991 87.0234C806.991 89.8231 808.146 92.1329 810.455 93.9527C812.765 95.7025 815.46 96.5774 818.54 96.5774ZM880.846 104.452C876.717 104.452 873.042 103.577 869.822 101.827C866.673 100.007 864.293 97.7323 862.683 95.0026H862.263V102.772H853.759V27.5999H862.683V51.2223L862.263 58.3615H862.683C864.363 55.7018 866.778 53.4971 869.927 51.7472C873.077 49.9274 876.717 49.0175 880.846 49.0175C885.326 49.0175 889.455 50.2424 893.235 52.6921C897.014 55.0719 900.024 58.3615 902.264 62.5611C904.504 66.7606 905.624 71.4851 905.624 76.7345C905.624 81.984 904.504 86.7085 902.264 90.908C900.024 95.1076 897.014 98.4322 893.235 100.882C889.455 103.262 885.326 104.452 880.846 104.452ZM879.481 96.3674C882.561 96.3674 885.396 95.5625 887.985 93.9527C890.645 92.3429 892.745 90.0681 894.285 87.1284C895.895 84.1187 896.699 80.6541 896.699 76.7345C896.699 72.815 895.895 69.3853 894.285 66.4457C892.745 63.436 890.645 61.1262 887.985 59.5164C885.396 57.9066 882.561 57.1017 879.481 57.1017C876.402 57.1017 873.532 57.9066 870.872 59.5164C868.283 61.0562 866.183 63.331 864.573 66.3407C863.033 69.2804 862.263 72.745 862.263 76.7345C862.263 80.6541 863.033 84.1187 864.573 87.1284C866.183 90.1381 868.283 92.4478 870.872 94.0577C873.532 95.5975 876.402 96.3674 879.481 96.3674ZM918.428 39.7785C916.678 39.7785 915.173 39.1486 913.914 37.8888C912.654 36.6289 912.024 35.1241 912.024 33.3742C912.024 31.6244 912.654 30.1196 913.914 28.8597C915.173 27.5999 916.678 26.9699 918.428 26.9699C920.178 26.9699 921.683 27.5999 922.943 28.8597C924.202 30.1196 924.832 31.6244 924.832 33.3742C924.832 35.1241 924.202 36.6289 922.943 37.8888C921.753 39.1486 920.248 39.7785 918.428 39.7785ZM914.019 50.6974H922.838V102.772H914.019V50.6974ZM934.663 27.5999H943.587V102.772H934.663V27.5999ZM959.858 39.7785C958.109 39.7785 956.604 39.1486 955.344 37.8888C954.084 36.6289 953.454 35.1241 953.454 33.3742C953.454 31.6244 954.084 30.1196 955.344 28.8597C956.604 27.5999 958.109 26.9699 959.858 26.9699C961.608 26.9699 963.113 27.5999 964.373 28.8597C965.633 30.1196 966.263 31.6244 966.263 33.3742C966.263 35.1241 965.633 36.6289 964.373 37.8888C963.183 39.1486 961.678 39.7785 959.858 39.7785ZM955.449 50.6974H964.268V102.772H955.449V50.6974ZM995.633 103.612C993.533 103.612 991.574 103.262 989.754 102.562C988.004 101.862 986.499 100.917 985.239 99.7271C983.84 98.3972 982.79 96.8574 982.09 95.1076C981.46 93.2878 981.145 91.153 981.145 88.7033V58.7815H971.906V50.6974H981.145V35.159H989.964V50.6974H1002.77V58.7815H989.964V86.4985C989.964 89.4382 990.559 91.6079 991.749 93.0078C992.939 94.5476 994.758 95.3175 997.208 95.3175C999.378 95.3175 1001.27 94.8276 1002.88 93.8477V102.457C1001.76 102.877 1000.67 103.157 999.623 103.297C998.643 103.507 997.313 103.612 995.633 103.612ZM1027.58 99.4121L1005.95 50.6974H1015.61L1031.78 89.0182H1031.99L1047.63 50.6974H1057.29L1024.74 125.449H1015.61L1027.58 99.4121Z" fill="#202124"/>
</svg>
