<svg width="955" height="135" viewBox="0 0 955 135" fill="none" xmlns="http://www.w3.org/2000/svg">
  <path d="M159.487 21.1831L148.095 32.8303L182.271 67.7718L148.095 102.713L125.311 79.419L113.919 91.0662L148.095 126.008L205.055 67.7718L159.487 21.1831Z" fill="#C4EED0"/>
  <path d="M56.9596 9.53589L11.3916 56.1246L22.7836 67.7718L56.9596 32.8302L79.7436 56.1246L91.1356 44.4774L56.9596 9.53589Z" fill="#C4EED0"/>
  <path d="M148.095 9.53589L159.487 21.1831L56.9595 126.008L-0.000488281 67.7718L11.3915 56.1246L56.9595 102.713L148.095 9.53589Z" fill="#1EA446"/>
  <path d="M246.662 27.5999H256.531L270.179 82.8239L271.439 87.9683H271.859L273.434 82.8239L290.232 27.5999H299.471L315.534 82.8239L317.109 87.9683H317.529L332.332 27.5999H342.201L321.939 102.772H312.7L296.741 48.3876L295.061 42.5083H294.641L292.857 48.3876L276.268 102.772H267.029L246.662 27.5999ZM351.735 39.7785C349.985 39.7785 348.48 39.1486 347.22 37.8888C345.96 36.6289 345.33 35.1241 345.33 33.3742C345.33 31.6244 345.96 30.1196 347.22 28.8597C348.48 27.5999 349.985 26.9699 351.735 26.9699C353.485 26.9699 354.989 27.5999 356.249 28.8597C357.509 30.1196 358.139 31.6244 358.139 33.3742C358.139 35.1241 357.509 36.6289 356.249 37.8888C355.059 39.1486 353.555 39.7785 351.735 39.7785ZM347.325 50.6974H356.144V102.772H347.325V50.6974ZM389.294 104.452C384.815 104.452 380.685 103.262 376.906 100.882C373.126 98.5022 370.117 95.2125 367.877 91.013C365.637 86.7435 364.517 81.984 364.517 76.7345C364.517 71.4851 365.637 66.7606 367.877 62.5611C370.117 58.2915 373.126 54.9669 376.906 52.5872C380.685 50.2074 384.815 49.0175 389.294 49.0175C393.354 49.0175 396.994 49.9274 400.213 51.7472C403.433 53.4971 405.848 55.7018 407.457 58.3615H407.877L407.457 51.2223V27.5999H416.277V102.772H407.877V95.0026H407.457C405.848 97.7323 403.433 100.007 400.213 101.827C396.994 103.577 393.354 104.452 389.294 104.452ZM390.659 96.3674C393.739 96.3674 396.574 95.5975 399.163 94.0577C401.823 92.4478 403.923 90.1381 405.463 87.1284C407.073 84.1187 407.877 80.6541 407.877 76.7345C407.877 72.745 407.073 69.2804 405.463 66.3407C403.923 63.331 401.823 61.0562 399.163 59.5164C396.574 57.9066 393.739 57.1017 390.659 57.1017C387.58 57.1017 384.71 57.9066 382.05 59.5164C379.461 61.1262 377.361 63.436 375.751 66.4457C374.211 69.3853 373.441 72.815 373.441 76.7345C373.441 80.6541 374.211 84.1187 375.751 87.1284C377.361 90.0681 379.461 92.3429 382.05 93.9527C384.71 95.5625 387.58 96.3674 390.659 96.3674ZM450.079 104.452C445.039 104.452 440.525 103.262 436.535 100.882C432.616 98.5022 429.536 95.2125 427.296 91.013C425.056 86.8135 423.937 82.054 423.937 76.7345C423.937 71.6951 424.987 67.0756 427.086 62.876C429.186 58.6065 432.161 55.2469 436.01 52.7971C439.93 50.2774 444.409 49.0175 449.449 49.0175C454.488 49.0175 458.898 50.1724 462.677 52.4822C466.527 54.7219 469.467 57.9066 471.496 62.0361C473.526 66.1657 474.541 70.9252 474.541 76.3146C474.541 77.2945 474.471 77.9944 474.331 78.4144H432.966C433.106 82.3339 434.051 85.6586 435.8 88.3883C437.55 91.048 439.72 93.0428 442.31 94.3726C444.969 95.7025 447.699 96.3674 450.499 96.3674C457.078 96.3674 462.152 93.1478 465.722 86.7085L473.596 90.4881C471.356 94.6876 468.242 98.0822 464.252 100.672C460.333 103.192 455.608 104.452 450.079 104.452ZM465.092 70.9602C464.952 68.8604 464.357 66.7606 463.307 64.6609C462.257 62.5611 460.543 60.7763 458.163 59.3064C455.853 57.8366 452.878 57.1017 449.239 57.1017C445.319 57.1017 441.925 58.3615 439.055 60.8813C436.185 63.401 434.365 66.7606 433.596 70.9602H465.092ZM482.605 27.5999H491.529V102.772H482.605V27.5999ZM518.404 99.4121L496.777 50.6974H506.436L522.604 89.0182H522.814L538.457 50.6974H548.116L515.57 125.449H506.436L518.404 99.4121ZM592.668 104.452C588.889 104.452 585.459 103.717 582.379 102.247C579.37 100.707 576.99 98.6072 575.24 95.9475C573.56 93.2178 572.72 90.1731 572.72 86.8135C572.72 81.2841 574.785 76.9795 578.915 73.8999C583.114 70.8202 588.469 69.2804 594.978 69.2804C598.198 69.2804 601.102 69.6303 603.692 70.3302C606.282 71.0302 608.346 71.8001 609.886 72.64V69.9103C609.886 67.3906 609.221 65.1508 607.891 63.191C606.632 61.1612 604.917 59.6214 602.747 58.5715C600.577 57.4516 598.233 56.8917 595.713 56.8917C589.763 56.8917 585.214 59.3064 582.064 64.1359L574.61 59.2014C576.78 55.9818 579.65 53.4971 583.219 51.7472C586.789 49.9274 590.813 49.0175 595.293 49.0175C602.432 49.0175 608.066 50.9423 612.196 54.7919C616.326 58.6415 618.39 63.8209 618.39 70.3302V102.772H609.886V95.1076H609.466C607.786 97.7673 605.512 100.007 602.642 101.827C599.772 103.577 596.448 104.452 592.668 104.452ZM593.403 96.5774C596.203 96.5774 598.862 95.8425 601.382 94.3726C603.902 92.9028 605.932 90.908 607.472 88.3883C609.081 85.8686 609.886 83.1389 609.886 80.1992C605.967 77.6794 601.452 76.4196 596.343 76.4196C591.933 76.4196 588.399 77.4345 585.739 79.4643C583.149 81.424 581.854 83.9438 581.854 87.0234C581.854 89.8231 583.009 92.1329 585.319 93.9527C587.629 95.7025 590.323 96.5774 593.403 96.5774ZM621.718 50.6974H631.377L647.335 92.2729H647.545L663.713 50.6974H673.162L651.85 102.772H642.821L621.718 50.6974ZM694.18 104.452C690.4 104.452 686.971 103.717 683.891 102.247C680.881 100.707 678.501 98.6072 676.752 95.9475C675.072 93.2178 674.232 90.1731 674.232 86.8135C674.232 81.2841 676.297 76.9795 680.426 73.8999C684.626 70.8202 689.98 69.2804 696.49 69.2804C699.709 69.2804 702.614 69.6303 705.204 70.3302C707.793 71.0302 709.858 71.8001 711.398 72.64V69.9103C711.398 67.3906 710.733 65.1508 709.403 63.191C708.143 61.1612 706.428 59.6214 704.259 58.5715C702.089 57.4516 699.744 56.8917 697.224 56.8917C691.275 56.8917 686.726 59.3064 683.576 64.1359L676.122 59.2014C678.292 55.9818 681.161 53.4971 684.731 51.7472C688.3 49.9274 692.325 49.0175 696.805 49.0175C703.944 49.0175 709.578 50.9423 713.708 54.7919C717.837 58.6415 719.902 63.8209 719.902 70.3302V102.772H711.398V95.1076H710.978C709.298 97.7673 707.023 100.007 704.154 101.827C701.284 103.577 697.959 104.452 694.18 104.452ZM694.915 96.5774C697.714 96.5774 700.374 95.8425 702.894 94.3726C705.414 92.9028 707.443 90.908 708.983 88.3883C710.593 85.8686 711.398 83.1389 711.398 80.1992C707.478 77.6794 702.964 76.4196 697.854 76.4196C693.445 76.4196 689.91 77.4345 687.251 79.4643C684.661 81.424 683.366 83.9438 683.366 87.0234C683.366 89.8231 684.521 92.1329 686.831 93.9527C689.14 95.7025 691.835 96.5774 694.915 96.5774ZM735.384 39.7785C733.634 39.7785 732.129 39.1486 730.869 37.8888C729.609 36.6289 728.979 35.1241 728.979 33.3742C728.979 31.6244 729.609 30.1196 730.869 28.8597C732.129 27.5999 733.634 26.9699 735.384 26.9699C737.134 26.9699 738.638 27.5999 739.898 28.8597C741.158 30.1196 741.788 31.6244 741.788 33.3742C741.788 35.1241 741.158 36.6289 739.898 37.8888C738.708 39.1486 737.204 39.7785 735.384 39.7785ZM730.974 50.6974H739.793V102.772H730.974V50.6974ZM751.618 27.5999H760.542V102.772H751.618V27.5999ZM787.955 104.452C784.176 104.452 780.746 103.717 777.666 102.247C774.657 100.707 772.277 98.6072 770.527 95.9475C768.847 93.2178 768.007 90.1731 768.007 86.8135C768.007 81.2841 770.072 76.9795 774.202 73.8999C778.401 70.8202 783.756 69.2804 790.265 69.2804C793.485 69.2804 796.389 69.6303 798.979 70.3302C801.569 71.0302 803.633 71.8001 805.173 72.64V69.9103C805.173 67.3906 804.508 65.1508 803.179 63.191C801.919 61.1612 800.204 59.6214 798.034 58.5715C795.864 57.4516 793.52 56.8917 791 56.8917C785.051 56.8917 780.501 59.3064 777.351 64.1359L769.897 59.2014C772.067 55.9818 774.937 53.4971 778.506 51.7472C782.076 49.9274 786.1 49.0175 790.58 49.0175C797.719 49.0175 803.354 50.9423 807.483 54.7919C811.613 58.6415 813.677 63.8209 813.677 70.3302V102.772H805.173V95.1076H804.753C803.074 97.7673 800.799 100.007 797.929 101.827C795.059 103.577 791.735 104.452 787.955 104.452ZM788.69 96.5774C791.49 96.5774 794.15 95.8425 796.669 94.3726C799.189 92.9028 801.219 90.908 802.759 88.3883C804.368 85.8686 805.173 83.1389 805.173 80.1992C801.254 77.6794 796.739 76.4196 791.63 76.4196C787.22 76.4196 783.686 77.4345 781.026 79.4643C778.436 81.424 777.141 83.9438 777.141 87.0234C777.141 89.8231 778.296 92.1329 780.606 93.9527C782.916 95.7025 785.61 96.5774 788.69 96.5774ZM850.997 104.452C846.867 104.452 843.193 103.577 839.973 101.827C836.823 100.007 834.444 97.7323 832.834 95.0026H832.414V102.772H823.91V27.5999H832.834V51.2223L832.414 58.3615H832.834C834.514 55.7018 836.928 53.4971 840.078 51.7472C843.228 49.9274 846.867 49.0175 850.997 49.0175C855.476 49.0175 859.606 50.2424 863.385 52.6921C867.165 55.0719 870.175 58.3615 872.414 62.5611C874.654 66.7606 875.774 71.4851 875.774 76.7345C875.774 81.984 874.654 86.7085 872.414 90.908C870.175 95.1076 867.165 98.4322 863.385 100.882C859.606 103.262 855.476 104.452 850.997 104.452ZM849.632 96.3674C852.712 96.3674 855.546 95.5625 858.136 93.9527C860.796 92.3429 862.895 90.0681 864.435 87.1284C866.045 84.1187 866.85 80.6541 866.85 76.7345C866.85 72.815 866.045 69.3853 864.435 66.4457C862.895 63.436 860.796 61.1262 858.136 59.5164C855.546 57.9066 852.712 57.1017 849.632 57.1017C846.552 57.1017 843.683 57.9066 841.023 59.5164C838.433 61.0562 836.333 63.331 834.724 66.3407C833.184 69.2804 832.414 72.745 832.414 76.7345C832.414 80.6541 833.184 84.1187 834.724 87.1284C836.333 90.1381 838.433 92.4478 841.023 94.0577C843.683 95.5975 846.552 96.3674 849.632 96.3674ZM883.329 27.5999H892.253V102.772H883.329V27.5999ZM925.965 104.452C920.926 104.452 916.411 103.262 912.422 100.882C908.502 98.5022 905.422 95.2125 903.183 91.013C900.943 86.8135 899.823 82.054 899.823 76.7345C899.823 71.6951 900.873 67.0756 902.973 62.876C905.072 58.6065 908.047 55.2469 911.897 52.7971C915.816 50.2774 920.296 49.0175 925.335 49.0175C930.375 49.0175 934.784 50.1724 938.564 52.4822C942.413 54.7219 945.353 57.9066 947.383 62.0361C949.413 66.1657 950.428 70.9252 950.428 76.3146C950.428 77.2945 950.358 77.9944 950.218 78.4144H908.852C908.992 82.3339 909.937 85.6586 911.687 88.3883C913.437 91.048 915.606 93.0428 918.196 94.3726C920.856 95.7025 923.585 96.3674 926.385 96.3674C932.964 96.3674 938.039 93.1478 941.609 86.7085L949.483 90.4881C947.243 94.6876 944.128 98.0822 940.139 100.672C936.219 103.192 931.495 104.452 925.965 104.452ZM940.979 70.9602C940.839 68.8604 940.244 66.7606 939.194 64.6609C938.144 62.5611 936.429 60.7763 934.049 59.3064C931.74 57.8366 928.765 57.1017 925.125 57.1017C921.206 57.1017 917.811 58.3615 914.941 60.8813C912.072 63.401 910.252 66.7606 909.482 70.9602H940.979Z" fill="#202124"/>
</svg>
