<svg width="617" height="135" viewBox="0 0 617 135" fill="none" xmlns="http://www.w3.org/2000/svg">
  <path d="M159.487 21.1831L148.095 32.8303L182.271 67.7718L148.095 102.713L125.311 79.419L113.919 91.0662L148.095 126.008L205.055 67.7718L159.487 21.1831Z" fill="#C4EED0"/>
  <path d="M56.9596 9.53589L11.3916 56.1246L22.7836 67.7718L56.9596 32.8302L79.7436 56.1246L91.1356 44.4774L56.9596 9.53589Z" fill="#C4EED0"/>
  <path d="M148.096 9.53589L159.488 21.1831L56.96 126.008L0 67.7718L11.392 56.1246L56.96 102.713L148.096 9.53589Z" fill="#1EA446"/>
  <path d="M252.796 27.5999H279.883C283.663 27.5999 287.198 28.4748 290.487 30.2246C293.777 31.9744 296.402 34.3891 298.361 37.4688C300.391 40.5485 301.406 44.0131 301.406 47.8627C301.406 51.5023 300.461 54.6869 298.571 57.4166C296.681 60.1463 294.162 62.2461 291.012 63.716V64.1359C294.792 65.3958 297.871 67.6005 300.251 70.7502C302.701 73.8299 303.926 77.3995 303.926 81.459C303.926 85.5186 302.876 89.1932 300.776 92.4828C298.676 95.7025 295.912 98.2222 292.482 100.042C289.052 101.862 285.343 102.772 281.353 102.772H252.796V27.5999ZM279.883 60.1463C282.403 60.1463 284.608 59.5514 286.498 58.3615C288.457 57.1717 289.927 55.6668 290.907 53.847C291.957 51.9572 292.482 50.0324 292.482 48.0726C292.482 46.1829 291.992 44.3281 291.012 42.5083C290.032 40.6185 288.597 39.0786 286.708 37.8888C284.888 36.6989 282.753 36.1039 280.303 36.1039H261.72V60.1463H279.883ZM281.773 94.2676C284.363 94.2676 286.638 93.6377 288.597 92.3779C290.557 91.118 292.062 89.5082 293.112 87.5484C294.232 85.5186 294.792 83.4538 294.792 81.354C294.792 79.2543 294.232 77.2245 293.112 75.2647C292.062 73.2349 290.487 71.6251 288.387 70.4352C286.358 69.1754 284.013 68.5454 281.353 68.5454H261.72V94.2676H281.773ZM329.282 104.452C325.503 104.452 322.073 103.717 318.993 102.247C315.984 100.707 313.604 98.6072 311.854 95.9475C310.174 93.2178 309.334 90.1731 309.334 86.8135C309.334 81.2841 311.399 76.9795 315.529 73.8999C319.728 70.8202 325.083 69.2804 331.592 69.2804C334.811 69.2804 337.716 69.6303 340.306 70.3302C342.896 71.0302 344.96 71.8001 346.5 72.64V69.9103C346.5 67.3906 345.835 65.1508 344.505 63.191C343.246 61.1612 341.531 59.6214 339.361 58.5715C337.191 57.4516 334.846 56.8917 332.327 56.8917C326.377 56.8917 321.828 59.3064 318.678 64.1359L311.224 59.2014C313.394 55.9818 316.264 53.4971 319.833 51.7472C323.403 49.9274 327.427 49.0175 331.907 49.0175C339.046 49.0175 344.68 50.9423 348.81 54.7919C352.94 58.6415 355.004 63.8209 355.004 70.3302V102.772H346.5V95.1076H346.08C344.4 97.7673 342.126 100.007 339.256 101.827C336.386 103.577 333.062 104.452 329.282 104.452ZM330.017 96.5774C332.817 96.5774 335.476 95.8425 337.996 94.3726C340.516 92.9028 342.546 90.908 344.085 88.3883C345.695 85.8686 346.5 83.1389 346.5 80.1992C342.581 77.6794 338.066 76.4196 332.957 76.4196C328.547 76.4196 325.013 77.4345 322.353 79.4643C319.763 81.424 318.468 83.9438 318.468 87.0234C318.468 89.8231 319.623 92.1329 321.933 93.9527C324.243 95.7025 326.937 96.5774 330.017 96.5774ZM383.097 104.452C377.568 104.452 372.878 103.052 369.028 100.252C365.179 97.4523 362.484 93.9877 360.944 89.8581L368.819 86.3935C370.218 89.6831 372.178 92.2029 374.698 93.9527C377.288 95.7025 380.087 96.5774 383.097 96.5774C386.457 96.5774 389.221 95.8425 391.391 94.3726C393.631 92.9028 394.751 91.118 394.751 89.0182C394.751 86.9884 393.911 85.3086 392.231 83.9788C390.621 82.6489 387.821 81.494 383.832 80.5141L376.693 78.7293C372.773 77.8194 369.413 76.1746 366.614 73.7949C363.884 71.4151 362.519 68.2655 362.519 64.3459C362.519 61.1262 363.429 58.3615 365.249 56.0518C367.139 53.742 369.623 51.9922 372.703 50.8024C375.783 49.6125 379.142 49.0175 382.782 49.0175C387.262 49.0175 391.321 50.0674 394.961 52.1672C398.67 54.197 401.295 57.1017 402.835 60.8813L394.961 64.2409C393.841 61.7212 392.126 59.8664 389.816 58.6765C387.576 57.4866 385.057 56.8917 382.257 56.8917C379.527 56.8917 377.043 57.5566 374.803 58.8865C372.633 60.2163 371.548 61.9311 371.548 64.0309C371.548 65.8507 372.248 67.2856 373.648 68.3355C375.118 69.3853 377.428 70.3302 380.577 71.1701L388.346 73.0599C393.526 74.3898 397.375 76.3846 399.895 79.0443C402.485 81.634 403.78 84.7487 403.78 88.3883C403.78 91.398 402.905 94.1277 401.155 96.5774C399.405 99.0271 396.955 100.952 393.806 102.352C390.656 103.752 387.087 104.452 383.097 104.452ZM435.043 104.452C430.003 104.452 425.489 103.262 421.499 100.882C417.579 98.5022 414.5 95.2125 412.26 91.013C410.02 86.8135 408.9 82.054 408.9 76.7345C408.9 71.6951 409.95 67.0756 412.05 62.876C414.15 58.6065 417.125 55.2469 420.974 52.7971C424.894 50.2774 429.373 49.0175 434.413 49.0175C439.452 49.0175 443.862 50.1724 447.641 52.4822C451.491 54.7219 454.43 57.9066 456.46 62.0361C458.49 66.1657 459.505 70.9252 459.505 76.3146C459.505 77.2945 459.435 77.9944 459.295 78.4144H417.929C418.069 82.3339 419.014 85.6586 420.764 88.3883C422.514 91.048 424.684 93.0428 427.273 94.3726C429.933 95.7025 432.663 96.3674 435.463 96.3674C442.042 96.3674 447.116 93.1478 450.686 86.7085L458.56 90.4881C456.32 94.6876 453.206 98.0822 449.216 100.672C445.296 103.192 440.572 104.452 435.043 104.452ZM450.056 70.9602C449.916 68.8604 449.321 66.7606 448.271 64.6609C447.221 62.5611 445.506 60.7763 443.127 59.3064C440.817 57.8366 437.842 57.1017 434.203 57.1017C430.283 57.1017 426.888 58.3615 424.019 60.8813C421.149 63.401 419.329 66.7606 418.559 70.9602H450.056ZM467.569 27.5999H476.493V102.772H467.569V27.5999ZM492.764 39.7785C491.014 39.7785 489.51 39.1486 488.25 37.8888C486.99 36.6289 486.36 35.1241 486.36 33.3742C486.36 31.6244 486.99 30.1196 488.25 28.8597C489.51 27.5999 491.014 26.9699 492.764 26.9699C494.514 26.9699 496.019 27.5999 497.279 28.8597C498.539 30.1196 499.168 31.6244 499.168 33.3742C499.168 35.1241 498.539 36.6289 497.279 37.8888C496.089 39.1486 494.584 39.7785 492.764 39.7785ZM488.355 50.6974H497.174V102.772H488.355V50.6974ZM508.999 50.6974H517.503V58.4665H517.923C519.393 55.8068 521.702 53.5671 524.852 51.7472C528.002 49.9274 531.361 49.0175 534.931 49.0175C541.3 49.0175 546.13 50.8723 549.419 54.5819C552.779 58.2915 554.459 63.366 554.459 69.8053V102.772H545.64V71.1701C545.64 61.7912 541.265 57.1017 532.516 57.1017C529.717 57.1017 527.197 57.9066 524.957 59.5164C522.717 61.1262 520.968 63.226 519.708 65.8157C518.518 68.4054 517.923 71.1352 517.923 74.0048V102.772H508.999V50.6974ZM588.34 104.452C583.3 104.452 578.786 103.262 574.796 100.882C570.877 98.5022 567.797 95.2125 565.557 91.013C563.318 86.8135 562.198 82.054 562.198 76.7345C562.198 71.6951 563.248 67.0756 565.347 62.876C567.447 58.6065 570.422 55.2469 574.271 52.7971C578.191 50.2774 582.671 49.0175 587.71 49.0175C592.749 49.0175 597.159 50.1724 600.939 52.4822C604.788 54.7219 607.728 57.9066 609.758 62.0361C611.787 66.1657 612.802 70.9252 612.802 76.3146C612.802 77.2945 612.732 77.9944 612.592 78.4144H571.227C571.367 82.3339 572.312 85.6586 574.061 88.3883C575.811 91.048 577.981 93.0428 580.571 94.3726C583.23 95.7025 585.96 96.3674 588.76 96.3674C595.339 96.3674 600.414 93.1478 603.983 86.7085L611.857 90.4881C609.618 94.6876 606.503 98.0822 602.513 100.672C598.594 103.192 593.869 104.452 588.34 104.452ZM603.353 70.9602C603.213 68.8604 602.618 66.7606 601.568 64.6609C600.519 62.5611 598.804 60.7763 596.424 59.3064C594.114 57.8366 591.14 57.1017 587.5 57.1017C583.58 57.1017 580.186 58.3615 577.316 60.8813C574.446 63.401 572.627 66.7606 571.857 70.9602H603.353Z" fill="#202124"/>
</svg>
