<svg width="928" height="135" viewBox="0 0 928 135" fill="none" xmlns="http://www.w3.org/2000/svg">
  <path d="M57.4594 9.53589L68.8514 21.1831L57.4594 32.8302L46.0674 21.1831L57.4594 9.53589Z" fill="#A8C7FA"/>
  <path d="M80.2436 32.8303L91.6356 44.4775L80.2436 56.1247L68.8516 44.4775L80.2436 32.8303Z" fill="#A8C7FA"/>
  <path d="M171.379 32.8303L182.771 44.4775L171.379 56.1247L159.987 44.4775L171.379 32.8303Z" fill="#A8C7FA"/>
  <path d="M194.163 56.1246L205.555 67.7718L194.163 79.419L182.771 67.7718L194.163 56.1246Z" fill="#A8C7FA"/>
  <path d="M171.379 79.4189L182.771 91.0661L171.379 102.713L159.987 91.0661L171.379 79.4189Z" fill="#A8C7FA"/>
  <path d="M148.596 102.713L159.988 114.361L148.596 126.008L137.204 114.361L148.596 102.713Z" fill="#A8C7FA"/>
  <path d="M125.811 79.4189L137.203 91.0661L125.811 102.713L114.419 91.0661L125.811 79.4189Z" fill="#A8C7FA"/>
  <path d="M34.6752 32.8303L46.0672 44.4775L34.6752 56.1247L23.2832 44.4775L34.6752 32.8303Z" fill="#A8C7FA"/>
  <path d="M148.596 9.53589L159.988 21.1831L57.46 126.008L0.5 67.7718L11.892 56.1246L57.46 102.713L148.596 9.53589Z" fill="#1B6EF3"/>
  <path d="M253.476 27.5999H264.5L302.191 87.4434H302.611L302.191 72.955V27.5999H311.01V102.772H301.771L262.4 40.0935H261.98L262.4 54.5819V102.772H253.476V27.5999ZM347.129 104.452C342.09 104.452 337.575 103.262 333.586 100.882C329.666 98.5022 326.587 95.2125 324.347 91.013C322.107 86.8135 320.987 82.054 320.987 76.7345C320.987 71.6951 322.037 67.0756 324.137 62.876C326.237 58.6065 329.211 55.2469 333.061 52.7971C336.98 50.2774 341.46 49.0175 346.499 49.0175C351.539 49.0175 355.948 50.1724 359.728 52.4822C363.578 54.7219 366.517 57.9066 368.547 62.0361C370.577 66.1657 371.592 70.9252 371.592 76.3146C371.592 77.2945 371.522 77.9944 371.382 78.4144H330.016C330.156 82.3339 331.101 85.6586 332.851 88.3883C334.601 91.048 336.771 93.0428 339.36 94.3726C342.02 95.7025 344.75 96.3674 347.549 96.3674C354.129 96.3674 359.203 93.1478 362.773 86.7085L370.647 90.4881C368.407 94.6876 365.292 98.0822 361.303 100.672C357.383 103.192 352.659 104.452 347.129 104.452ZM362.143 70.9602C362.003 68.8604 361.408 66.7606 360.358 64.6609C359.308 62.5611 357.593 60.7763 355.214 59.3064C352.904 57.8366 349.929 57.1017 346.289 57.1017C342.37 57.1017 338.975 58.3615 336.106 60.8813C333.236 63.401 331.416 66.7606 330.646 70.9602H362.143ZM372.751 50.6974H381.99L394.168 91.223H394.273L407.502 50.6974H416.741L429.97 91.223H430.075L442.253 50.6974H451.177L434.274 102.772H425.35L411.911 61.5112L398.578 102.772H389.654L372.751 50.6974ZM456.3 27.5999H465.224V102.772H456.3V27.5999ZM492.099 99.4121L470.471 50.6974H480.13L496.299 89.0182H496.509L512.152 50.6974H521.811L489.264 125.449H480.13L492.099 99.4121ZM566.363 104.452C562.583 104.452 559.154 103.717 556.074 102.247C553.064 100.707 550.685 98.6072 548.935 95.9475C547.255 93.2178 546.415 90.1731 546.415 86.8135C546.415 81.2841 548.48 76.9795 552.609 73.8999C556.809 70.8202 562.163 69.2804 568.673 69.2804C571.892 69.2804 574.797 69.6303 577.387 70.3302C579.976 71.0302 582.041 71.8001 583.581 72.64V69.9103C583.581 67.3906 582.916 65.1508 581.586 63.191C580.326 61.1612 578.612 59.6214 576.442 58.5715C574.272 57.4516 571.927 56.8917 569.408 56.8917C563.458 56.8917 558.909 59.3064 555.759 64.1359L548.305 59.2014C550.475 55.9818 553.344 53.4971 556.914 51.7472C560.484 49.9274 564.508 49.0175 568.988 49.0175C576.127 49.0175 581.761 50.9423 585.891 54.7919C590.02 58.6415 592.085 63.8209 592.085 70.3302V102.772H583.581V95.1076H583.161C581.481 97.7673 579.206 100.007 576.337 101.827C573.467 103.577 570.142 104.452 566.363 104.452ZM567.098 96.5774C569.897 96.5774 572.557 95.8425 575.077 94.3726C577.597 92.9028 579.626 90.908 581.166 88.3883C582.776 85.8686 583.581 83.1389 583.581 80.1992C579.661 77.6794 575.147 76.4196 570.037 76.4196C565.628 76.4196 562.093 77.4345 559.434 79.4643C556.844 81.424 555.549 83.9438 555.549 87.0234C555.549 89.8231 556.704 92.1329 559.014 93.9527C561.323 95.7025 564.018 96.5774 567.098 96.5774ZM595.413 50.6974H605.072L621.03 92.2729H621.24L637.408 50.6974H646.857L625.544 102.772H616.515L595.413 50.6974ZM667.875 104.452C664.095 104.452 660.665 103.717 657.586 102.247C654.576 100.707 652.196 98.6072 650.446 95.9475C648.767 93.2178 647.927 90.1731 647.927 86.8135C647.927 81.2841 649.991 76.9795 654.121 73.8999C658.321 70.8202 663.675 69.2804 670.184 69.2804C673.404 69.2804 676.309 69.6303 678.898 70.3302C681.488 71.0302 683.553 71.8001 685.093 72.64V69.9103C685.093 67.3906 684.428 65.1508 683.098 63.191C681.838 61.1612 680.123 59.6214 677.953 58.5715C675.784 57.4516 673.439 56.8917 670.919 56.8917C664.97 56.8917 660.42 59.3064 657.271 64.1359L649.817 59.2014C651.986 55.9818 654.856 53.4971 658.426 51.7472C661.995 49.9274 666.02 49.0175 670.499 49.0175C677.639 49.0175 683.273 50.9423 687.402 54.7919C691.532 58.6415 693.597 63.8209 693.597 70.3302V102.772H685.093V95.1076H684.673C682.993 97.7673 680.718 100.007 677.848 101.827C674.979 103.577 671.654 104.452 667.875 104.452ZM668.609 96.5774C671.409 96.5774 674.069 95.8425 676.589 94.3726C679.108 92.9028 681.138 90.908 682.678 88.3883C684.288 85.8686 685.093 83.1389 685.093 80.1992C681.173 77.6794 676.659 76.4196 671.549 76.4196C667.14 76.4196 663.605 77.4345 660.945 79.4643C658.356 81.424 657.061 83.9438 657.061 87.0234C657.061 89.8231 658.216 92.1329 660.525 93.9527C662.835 95.7025 665.53 96.5774 668.609 96.5774ZM709.078 39.7785C707.329 39.7785 705.824 39.1486 704.564 37.8888C703.304 36.6289 702.674 35.1241 702.674 33.3742C702.674 31.6244 703.304 30.1196 704.564 28.8597C705.824 27.5999 707.329 26.9699 709.078 26.9699C710.828 26.9699 712.333 27.5999 713.593 28.8597C714.853 30.1196 715.483 31.6244 715.483 33.3742C715.483 35.1241 714.853 36.6289 713.593 37.8888C712.403 39.1486 710.898 39.7785 709.078 39.7785ZM704.669 50.6974H713.488V102.772H704.669V50.6974ZM725.313 27.5999H734.237V102.772H725.313V27.5999ZM761.65 104.452C757.87 104.452 754.441 103.717 751.361 102.247C748.351 100.707 745.972 98.6072 744.222 95.9475C742.542 93.2178 741.702 90.1731 741.702 86.8135C741.702 81.2841 743.767 76.9795 747.896 73.8999C752.096 70.8202 757.45 69.2804 763.96 69.2804C767.179 69.2804 770.084 69.6303 772.674 70.3302C775.263 71.0302 777.328 71.8001 778.868 72.64V69.9103C778.868 67.3906 778.203 65.1508 776.873 63.191C775.613 61.1612 773.899 59.6214 771.729 58.5715C769.559 57.4516 767.214 56.8917 764.695 56.8917C758.745 56.8917 754.196 59.3064 751.046 64.1359L743.592 59.2014C745.762 55.9818 748.631 53.4971 752.201 51.7472C755.771 49.9274 759.795 49.0175 764.275 49.0175C771.414 49.0175 777.048 50.9423 781.178 54.7919C785.307 58.6415 787.372 63.8209 787.372 70.3302V102.772H778.868V95.1076H778.448C776.768 97.7673 774.494 100.007 771.624 101.827C768.754 103.577 765.43 104.452 761.65 104.452ZM762.385 96.5774C765.185 96.5774 767.844 95.8425 770.364 94.3726C772.884 92.9028 774.913 90.908 776.453 88.3883C778.063 85.8686 778.868 83.1389 778.868 80.1992C774.948 77.6794 770.434 76.4196 765.325 76.4196C760.915 76.4196 757.38 77.4345 754.721 79.4643C752.131 81.424 750.836 83.9438 750.836 87.0234C750.836 89.8231 751.991 92.1329 754.301 93.9527C756.61 95.7025 759.305 96.5774 762.385 96.5774ZM824.692 104.452C820.562 104.452 816.887 103.577 813.668 101.827C810.518 100.007 808.138 97.7323 806.528 95.0026H806.109V102.772H797.604V27.5999H806.528V51.2223L806.109 58.3615H806.528C808.208 55.7018 810.623 53.4971 813.773 51.7472C816.922 49.9274 820.562 49.0175 824.692 49.0175C829.171 49.0175 833.301 50.2424 837.08 52.6921C840.86 55.0719 843.869 58.3615 846.109 62.5611C848.349 66.7606 849.469 71.4851 849.469 76.7345C849.469 81.984 848.349 86.7085 846.109 90.908C843.869 95.1076 840.86 98.4322 837.08 100.882C833.301 103.262 829.171 104.452 824.692 104.452ZM823.327 96.3674C826.406 96.3674 829.241 95.5625 831.831 93.9527C834.49 92.3429 836.59 90.0681 838.13 87.1284C839.74 84.1187 840.545 80.6541 840.545 76.7345C840.545 72.815 839.74 69.3853 838.13 66.4457C836.59 63.436 834.49 61.1262 831.831 59.5164C829.241 57.9066 826.406 57.1017 823.327 57.1017C820.247 57.1017 817.377 57.9066 814.718 59.5164C812.128 61.0562 810.028 63.331 808.418 66.3407C806.878 69.2804 806.109 72.745 806.109 76.7345C806.109 80.6541 806.878 84.1187 808.418 87.1284C810.028 90.1381 812.128 92.4478 814.718 94.0577C817.377 95.5975 820.247 96.3674 823.327 96.3674ZM857.024 27.5999H865.948V102.772H857.024V27.5999ZM899.66 104.452C894.621 104.452 890.106 103.262 886.116 100.882C882.197 98.5022 879.117 95.2125 876.877 91.013C874.638 86.8135 873.518 82.054 873.518 76.7345C873.518 71.6951 874.568 67.0756 876.667 62.876C878.767 58.6065 881.742 55.2469 885.591 52.7971C889.511 50.2774 893.991 49.0175 899.03 49.0175C904.069 49.0175 908.479 50.1724 912.259 52.4822C916.108 54.7219 919.048 57.9066 921.078 62.0361C923.107 66.1657 924.122 70.9252 924.122 76.3146C924.122 77.2945 924.052 77.9944 923.912 78.4144H882.547C882.687 82.3339 883.632 85.6586 885.382 88.3883C887.131 91.048 889.301 93.0428 891.891 94.3726C894.551 95.7025 897.28 96.3674 900.08 96.3674C906.659 96.3674 911.734 93.1478 915.303 86.7085L923.177 90.4881C920.938 94.6876 917.823 98.0822 913.833 100.672C909.914 103.192 905.189 104.452 899.66 104.452ZM914.673 70.9602C914.533 68.8604 913.938 66.7606 912.889 64.6609C911.839 62.5611 910.124 60.7763 907.744 59.3064C905.434 57.8366 902.46 57.1017 898.82 57.1017C894.9 57.1017 891.506 58.3615 888.636 60.8813C885.766 63.401 883.947 66.7606 883.177 70.9602H914.673Z" fill="#202124"/>
</svg>
