<svg version="1.2" xmlns="http://www.w3.org/2000/svg" viewBox="0 0 870 765" width="870" height="765">
  <defs>
    <linearGradient id="g" x2="1" gradientUnits="userSpaceOnUse" gradientTransform="matrix(0,328.4,-265.388,0,483.04,36)">
      <stop stop-color="#95e3ab"/><stop offset="1" stop-color="#0e6528"/>
    </linearGradient>
  </defs>
  <style>
    .solid {
      fill: black;
    }
    .solid-checkmark {
      fill: #1ea446;
    }
    .gradient-checkmark {
      fill: url(#g);
    }
    @media (prefers-color-scheme: dark) {
      .solid {
        fill: white;
      }
    }
  </style>
  <path class="solid" d="m402.6 365.3h-103.3c-2.6 0-5-1.6-6-3.2l-168.9-260.6c-1.5-2.4 0.2-5.1 2.7-5.1h96.6c3-0.1 5.3 0.9 6.7 3.1l118.6 183.1z"/>
  <path class="solid" d="m483 241.2l-53.6-82.7 38.5-59.4c0.9-1.2 3.4-2.7 5.6-2.7h99.2c2.7 0 2.9 2 2 3.3z"/>
  <path class="solid-checkmark" d="m748 39l-209.7 323.7c-1 1.2-2.6 2.6-5.8 2.6h-103.1l-132.1-203.7c-1-1.6-0.3-3.5 1.8-3.5h98.9c2.3 0 5.2 1.3 6.3 3.1l78.7 121.4 158-243.8c0.9-1.4 3.2-2.8 6.1-2.8h98.7c2.7 0 3 2 2.2 3z"/>
  <path class="gradient-checkmark" d="m748 39l-209.7 323.7c-0.5 0.6-1.1 1.2-2 1.7l-53.3-81.9 158-243.7c0.9-1.4 3.2-2.8 6.1-2.8h98.7c2.7 0 3 2 2.2 3z"/>
  <path class="solid" d="m140.7 460.6l-32.6 123.4h-44.8l-48-177.6h40.7l30 133.9 33.9-133.9h41.9l33.3 133.6 30.3-133.6h40.4l-47.9 177.6h-44.7zm173.4 125.2q-19.3 0-34-8.1-14.3-8.5-22.3-23.4-8-15.1-8-34.9 0-18.6 8-33.1 7.9-14.5 21.8-22.6 14.3-8.3 32.4-8.3 18.7 0 32.5 7.8 14.2 7.7 21.9 22.1 7.9 14 7.9 32.8 0 2.9-0.3 6.3-0.3 3.3-0.8 7.2h-85.3q1.2 7.3 4.9 12.6 3.8 5.2 9.4 8.1 5.9 2.8 13.2 2.8 8.5 0 15.2-3.3 6.7-3.8 9.9-9.9l31.6 8.8q-7.6 16.8-23 26.2-14.9 8.9-35 8.9zm-25.8-78.1h47.3q-0.3-6.5-3.5-11.5-3.1-5.3-8.4-8.1-5-3.1-11.4-2.9-5.9 0.1-11.1 3.1-4.9 2.8-8.7 7.9-3.2 4.9-4.2 11.5zm127.9-30.9l-4.8-0.3q5.7-8.8 16-14.8 10.7-6.3 25.4-6.3 16.3 0 28.7 8.1 12.7 7.8 19.8 22.6 7.2 14.5 7.2 34.5 0 19.8-7.5 34.5-7 14.6-19.5 22.8-12.5 7.9-28.7 7.9-12.8 0-22.8-5.1-9.8-5.3-15-12.6l-2.2 15.9h-32.1v-182.7h35.5zm54.2 43.8q0-14.6-7.7-23.6-7.4-9.1-19.4-9.1-7.5 0-13.8 4-6.1 3.7-9.7 11.2-3.6 6.9-3.6 17.5 0 10.5 3.6 17.7 3.6 7.2 9.7 11.2 6.3 3.6 13.8 3.6 12 0 19.4-8.9 7.7-9 7.7-23.6zm45.8-114.2h68.2q28.6 0 49.3 11.1 21.2 11 32.5 31.3 11.9 19.9 11.9 46.7 0 26.7-11.9 46.6-11.3 19.9-32.5 31-20.7 10.9-49.3 10.9h-68.2zm37.5 146.3h29.2q27.2 0 42-15.1 15-15.4 15-42 0-26.9-15-42.2-14.8-15.6-42-15.6h-29.2zm190.6-57.5l-64.5-88.8h43.1l43.7 60.6 42.5-60.6h43l-63.1 88.8 63.1 88.8h-43l-42.5-60.6-43.7 60.6h-43.1z"/>
  <path class="solid" d="m9.1 664.3q0-9.1 2.9-16.7 3.1-7.7 8.5-13.1 5.5-5.6 12.7-8.6 7.2-3 15.8-3 12.8 0 22.2 5.9 9.4 5.8 14.2 16.5l-6.8 2.5q-2.6-5.8-7.2-9.6-4.4-3.8-10.1-5.8-5.8-2-12.3-2-8.9 0-16.1 4.1-7 4-11.2 11.7-4.1 7.5-4.1 18.1 0 10.5 4.1 18.2 4.2 7.6 11.2 11.7 7.2 4.1 16.1 4.1 6.7 0 12.5-2 5.9-2.2 10.5-6.5 4.6-4.4 7.4-10.7l6.8 2.5q-4.9 11.9-14.6 18.1-9.5 6.1-22.6 6.1-8.6 0-15.8-3-7.2-3-12.7-8.6-5.4-5.6-8.5-13.1-2.9-7.7-2.9-16.8zm109.9 41.5q-8.2 0-14.7-3.6-6.5-3.6-10.2-10.2-3.7-6.8-3.7-15.9 0-9.3 3.8-16.1 3.7-6.7 10.2-10.3 6.6-3.6 14.8-3.6 8.2 0 14.7 3.6 6.6 3.6 10.2 10.3 3.9 6.7 3.9 15.9 0 9.2-3.9 16.1-3.7 6.6-10.4 10.2-6.5 3.6-14.7 3.6zm-0.1-7.4q5.3 0 10-2.3 4.7-2.4 7.6-7.4 3-5 3-12.7 0-7.9-2.9-12.7-2.9-5.1-7.6-7.3-4.6-2.5-9.9-2.5-5.3 0-9.9 2.5-4.6 2.2-7.5 7.3-2.8 4.9-2.8 12.7 0 7.8 2.7 12.7 2.9 5 7.4 7.4 4.6 2.3 9.9 2.3zm36.2 6.6v-58.1h7.2l0.5 9.3q2.5-4.6 6.9-7.3 4.4-2.8 10.9-2.8 6.3 0 11.4 3.2 5.2 3.1 7.8 9.3 2.6-6.4 8.1-9.4 5.5-3.1 12.3-3.1 6.5 0 11.4 2.9 5.1 2.8 7.8 8.5 2.9 5.6 2.9 14.2v33.3h-7.9v-32.5q0-9.4-4.1-14.2-4-5-11.5-5-7.6 0-12.2 5.5-4.3 5.2-4.3 15.6v30.6h-7.9v-32.5q0-9.4-3.9-14.2-3.9-5-11.3-5-7.6 0-12.1 5.5-4.2 5.2-4.2 15.6v30.6zm96 0v-58.1h7.3l0.5 9.3q2.4-4.6 6.9-7.3 4.4-2.8 10.8-2.8 6.4 0 11.5 3.2 5.1 3.1 7.8 9.3 2.6-6.4 8.1-9.4 5.5-3.1 12.3-3.1 6.4 0 11.4 2.9 5 2.8 7.8 8.5 2.8 5.6 2.8 14.2v33.3h-7.8v-32.5q0-9.4-4.1-14.2-4.1-5-11.5-5-7.6 0-12.2 5.5-4.4 5.2-4.4 15.6v30.6h-7.8v-32.5q0-9.4-4-14.2-3.8-5-11.3-5-7.6 0-12 5.5-4.2 5.2-4.2 15.6v30.6zm144.2-58.1v58.1h-7.1l-0.5-9.2q-2.6 4.8-7.3 7.5-4.6 2.5-11 2.5-6.7 0-11.8-2.7-4.9-2.8-7.8-8.3-2.6-5.7-2.6-14.2v-33.7h7.7v32.9q0 9.3 4 14 4.1 4.8 11.8 4.8 7.7 0 12.2-5 4.7-5.1 4.7-15.4v-31.3zm9.7 58.1v-58.1h7.3l0.4 9.2q2.7-4.7 7.2-7.3 4.7-2.7 11.2-2.7 6.6 0 11.6 2.9 5 2.8 7.7 8.5 2.9 5.6 2.9 14.1v33.4h-7.8v-32.5q0-9.4-4.2-14.2-4-5-11.6-5-7.9 0-12.4 5.3-4.4 5.2-4.4 15.5v30.9zm59.7 0v-58.1h7.7v58.1zm4-70.3q-2.5 0-4.1-1.5-1.6-1.7-1.6-4 0-2.5 1.6-4 1.6-1.7 4.1-1.7 2.2 0 3.8 1.7 1.8 1.5 1.8 4 0 2.3-1.8 4-1.6 1.5-3.8 1.5zm10.3 12.2h8.8v-16.3h7.8v16.3h15.9v7.3h-15.9v32.5q0 5.3 2.4 8 2.3 2.4 5.9 3.1 3.6 0.5 7.6 0v6.8q-4.5 1-8.8 0.5-4.2-0.5-7.6-2.5-3.3-2.2-5.4-6.1-1.9-3.9-1.9-9.8v-32.5h-8.8zm59 48.1l18.5-48.1h8.2l-33 81.4h-7.6l9.8-24-23.7-57.4h8.5zm99.5-36.4l0.5-11.7h7.3v47q0 10.9-4.9 18.7-4.6 7.6-13.7 11.7-9 4-22 4l-1.3-7.3q16.7-0.2 25.3-7 8.7-6.9 8.7-20.1v-1.6l0.9 0.2q-2.6 5.5-8.1 9.4-5.4 3.8-14.2 3.9-8 0-14-3.6-6-3.7-9.3-10.4-3.3-6.8-3.3-15.8 0-9.1 3.3-15.7 3.3-6.7 9.3-10.5 6-3.7 14-3.7 5.5 0 9.7 1.8 4.2 1.6 7.1 4.5 3 2.7 4.7 6.2zm-39.7 17.4q0 10.4 5.3 16.5 5.5 6 14.7 6 5.6 0 10-2.7 4.5-2.7 7.1-7.6 2.5-5.2 2.5-12.2 0-7.1-2.5-12-2.6-5.1-7.1-7.8-4.4-2.8-10-2.8-9.1 0-14.5 6.2-5.5 6.1-5.5 16.4zm58.3 29v-58.1h7.2l0.4 9.3q2.2-3.3 5.5-5.7 3.4-2.4 7.4-3.3 4.2-1.1 9-0.3v7.9q-4.9-1-8.9 0-3.9 1-6.8 3.6-2.9 2.7-4.5 6.8-1.5 3.9-1.5 9.1v30.7zm56.9 0.8q-8.2 0-14.7-3.6-6.4-3.6-10.2-10.2-3.7-6.7-3.7-15.9 0-9.3 3.8-16 3.8-6.8 10.2-10.4 6.6-3.6 14.8-3.6 8.2 0 14.7 3.6 6.6 3.6 10.3 10.4 3.8 6.6 3.8 15.8 0 9.3-3.8 16.1-3.8 6.6-10.5 10.2-6.5 3.6-14.7 3.6zm-0.1-7.4q5.3 0 10-2.3 4.7-2.4 7.6-7.3 3-5.1 3-12.8 0-7.8-2.9-12.7-2.9-5-7.5-7.3-4.7-2.5-10-2.5-5.3 0-9.9 2.5-4.6 2.3-7.5 7.3-2.8 5-2.8 12.7 0 7.8 2.7 12.8 2.9 4.9 7.5 7.3 4.5 2.3 9.8 2.3zm83.4-51.5v58.1h-7.1l-0.5-9.2q-2.6 4.8-7.3 7.5-4.6 2.5-11 2.5-6.7 0-11.8-2.6-4.9-2.9-7.8-8.4-2.6-5.7-2.6-14.2v-33.7h7.7v32.9q0 9.3 4 14.1 4.2 4.7 11.8 4.7 7.8 0 12.2-5 4.7-5.1 4.7-15.3v-31.4zm17.8 45.6l0.8-0.1v35.9h-7.8v-81.4h7.2l0.5 11.7q2.6-5.3 7.9-8.8 5.4-3.7 13.6-3.7 7.6 0 13.6 3.7 6.1 3.6 9.5 10.4 3.6 6.6 3.6 15.8 0 9-3.5 15.8-3.2 6.6-9.3 10.3-5.9 3.7-13.9 3.7-8.6 0-14.2-3.7-5.5-3.9-8-9.6zm40.4-16.5q0-10.4-5.4-16.4-5.3-6.2-14.4-6.2-5.7 0-10.4 2.8-4.4 2.6-6.9 7.7-2.5 5-2.5 12.1 0 6.9 2.5 12.1 2.6 4.9 7.1 7.7 4.5 2.7 10.2 2.7 9.1 0 14.4-6 5.4-6.2 5.4-16.5z"/>
</svg>