<svg version="1.2" xmlns="http://www.w3.org/2000/svg" viewBox="0 0 628 332" width="628" height="332">
  <defs>
    <linearGradient id="g" x2="1" gradientUnits="userSpaceOnUse" gradientTransform="matrix(0,328.4,-265.388,0,360.04,1)">
      <stop stop-color="#95e3ab"/>
      <stop offset="1" stop-color="#0e6528"/>
    </linearGradient>
  </defs>
  <style>
    .solid {
      fill: black;
    }
    .solid-checkmark {
      fill: #1ea446;
    }
    .gradient-checkmark {
      fill: url(#g);
    }
  </style>
  <path class="solid" d="m279.6 330.3h-103.3c-2.6 0-5-1.6-6-3.2l-168.9-260.6c-1.5-2.4 0.2-5.1 2.7-5.1h96.6c3-0.1 5.3 0.9 6.7 3.1l118.6 183.1z"/>
  <path class="solid" d="m360 206.2l-53.6-82.7 38.5-59.4c0.9-1.2 3.4-2.7 5.6-2.7h99.2c2.7 0 2.9 2 2 3.3z"/>
  <path class="solid-checkmark" d="m625 4l-209.7 323.7c-1 1.2-2.6 2.6-5.8 2.6h-103.1l-132.1-203.7c-1-1.6-0.3-3.5 1.8-3.5h98.9c2.3 0 5.2 1.3 6.3 3.1l78.7 121.4 158-243.8c0.9-1.4 3.2-2.8 6.1-2.8h98.7c2.7 0 3 2 2.2 3z"/>
  <path class="gradient-checkmark" d="m625 4l-209.7 323.7c-0.5 0.6-1.1 1.2-2 1.7l-53.3-81.9 158-243.7c0.9-1.4 3.2-2.8 6.1-2.8h98.7c2.7 0 3 2 2.2 3z"/>
</svg>